<svg xmlns="http://www.w3.org/2000/svg" viewBox="0 0 16 16" fill="#000000" id="Hoodie--Streamline-Phosphor" height="16" width="16">
  <desc>
    Hoodie Streamline Icon: https://streamlinehq.com
  </desc>
  <path d="M15.6515 7.4771125 11.8499 1.7785625c-0.2072 -0.31056875 -0.5555375 -0.4974625 -0.928875 -0.4983875H5.078975c-0.3733375 0.000925 -0.721675 0.18781875 -0.928875 0.4983875L0.3485 7.4771125c-0.1799 0.26948125 -0.23428125 0.6036625 -0.1491 0.916275l1.5007625 5.5011625c0.13285 0.48709375 0.5751875 0.82508125 1.080075 0.825275h1.85985c0.61854375 0 1.11996875 -0.501425 1.11996875 -1.11996875v-1.119975h4.4798875v1.119975c0 0.61854375 0.501425 1.11996875 1.11996875 1.11996875h1.85985c0.5048875 -0.00019375 0.947225 -0.33818125 1.080075 -0.825275l1.5007625 -5.5011625c0.08518125 -0.3126125 0.0308 -0.64679375 -0.1491 -0.916275ZM4.6400875 11.3599125V3.87010625l1.67995625 0.990475v3.69940625c0 0.431075 0.46665625 0.7005 0.839975 0.4849625 0.1732625 -0.1000375 0.27999375 -0.2849 0.27999375 -0.4849625V5.5199625l0.27579375 0.1624c0.17538125 0.10329375 0.39300625 0.10329375 0.5683875 0l0.27579375 -0.1624V8c0 0.431075 0.46665 0.7005 0.839975 0.4849625 0.1732625 -0.10003125 0.27999375 -0.2849 0.27999375 -0.4849625V4.85988125l1.67995625 -0.989775v7.48980625Zm6.2809375 -8.95976875 0.20439375 0.30729375L8 4.5497875 4.87458125 2.7074375l0.20439375 -0.30729375ZM4.6400875 13.59985625H2.7802375l-1.5000625 -5.50115625 2.23994375 -3.3599125v6.621125c0 0.61854375 0.501425 1.11996875 1.11996875 1.11996875Zm8.579675 0h-1.85985v-1.119975c0.618525 -0.000025 1.11996875 -0.50144375 1.11996875 -1.11996875V4.7387875l2.23994375 3.3599125Z" stroke-width="0.0625"></path>
</svg>