<svg xmlns="http://www.w3.org/2000/svg" viewBox="0 0 16 16" fill="#000000" id="Pants--Streamline-Phosphor" height="16" width="16">
  <desc>
    Pants Streamline Icon: https://streamlinehq.com
  </desc>
  <path d="m15.227875 14.483075 -1.6584625 -13.2676875c-0.076 -0.6032375 -0.5891 -1.0556 -1.19710625 -1.0553875H3.62769375c-0.60800625 -0.00020625 -1.12110625 0.45215 -1.19710625 1.05538125L0.772125 14.483075c-0.09076875 0.72044375 0.47096875 1.357175 1.19710625 1.356925h3.0674c0.55181875 0.00009375 1.03333125 -0.3743125 1.1692125 -0.9091375L8 7.995475l1.7934 6.9308625c0.1342 0.53689375 0.61655625 0.913575 1.16996875 0.9136625h3.0674c0.7261375 0.00025 1.287875 -0.63648125 1.19710625 -1.356925Zm-2.3354125 -8.9556875c-0.87945 -0.20186875 -1.57378125 -0.8758625 -1.80169375 -1.748925h1.583075Zm-0.52015625 -4.16123125 0.15076875 1.20615H3.476925l0.15076875 -1.20615ZM3.32615625 3.7784625h1.583075c-0.2279125 0.8730625 -0.92224375 1.54705625 -1.80169375 1.748925Zm1.710475 10.85538125H1.96923125l0.98 -7.86035c1.61409375 -0.1713625 2.91745625 -1.39495625 3.190275 -2.99503125h1.25741875v1.73384375Zm5.92523125 -0.00451875L8.603075 5.51230625V3.7784625h1.25741875c0.27281875 1.600075 1.57618125 2.82366875 3.190275 2.99503125l0.98 7.86035Z" stroke-width="0.0625"></path>
</svg>