<svg xmlns="http://www.w3.org/2000/svg" viewBox="0 0 640 640" role="img" aria-label="neutral baseball cap studio product illustration">
  <defs>
    <linearGradient id="bg" x1="94" y1="56" x2="548" y2="586" gradientUnits="userSpaceOnUse">
      <stop stop-color="#f8fbff"/>
      <stop offset="1" stop-color="#dfe8f2"/>
    </linearGradient>
    <linearGradient id="cap" x1="168" y1="183" x2="471" y2="430" gradientUnits="userSpaceOnUse">
      <stop stop-color="#8b99aa"/>
      <stop offset=".55" stop-color="#657386"/>
      <stop offset="1" stop-color="#465367"/>
    </linearGradient>
    <linearGradient id="brim" x1="307" y1="346" x2="582" y2="426" gradientUnits="userSpaceOnUse">
      <stop stop-color="#5f6d80"/>
      <stop offset="1" stop-color="#2f3a4d"/>
    </linearGradient>
    <filter id="shadow" x="-20%" y="-20%" width="140%" height="140%" color-interpolation-filters="sRGB">
      <feDropShadow dx="0" dy="22" stdDeviation="24" flood-color="#273447" flood-opacity=".22"/>
    </filter>
  </defs>
  <rect width="640" height="640" rx="54" fill="url(#bg)"/>
  <g filter="url(#shadow)">
    <path d="M115 354c8-93 80-163 179-169 96-5 165 51 190 139 10 34-14 67-50 67H161c-29 0-49-12-46-37Z" fill="url(#cap)"/>
    <path d="M170 379c65-27 172-37 283-17 60 11 102 37 111 64 4 13-8 24-25 22-73-9-149-2-233 23-55 17-111 20-167 10-33-6-50-25-40-48 10-22 32-38 71-54Z" fill="url(#brim)"/>
    <path d="M299 185c-16 49-20 112-10 188" fill="none" stroke="#aeb8c5" stroke-width="10" stroke-linecap="round" opacity=".78"/>
    <path d="M386 206c-27 38-42 91-43 160" fill="none" stroke="#aeb8c5" stroke-width="8" stroke-linecap="round" opacity=".46"/>
    <path d="M209 222c28 30 44 78 48 145" fill="none" stroke="#d4dbe4" stroke-width="8" stroke-linecap="round" opacity=".42"/>
    <path d="M179 364c64-18 155-23 253-10" fill="none" stroke="#c5ceda" stroke-width="7" stroke-linecap="round" opacity=".45"/>
    <circle cx="306" cy="186" r="13" fill="#dbe2eb"/>
    <path d="M130 448c67 31 149 31 247 0" fill="none" stroke="#e3e9f1" stroke-width="7" stroke-linecap="round" opacity=".38"/>
  </g>
</svg>
