<svg xmlns="http://www.w3.org/2000/svg" viewBox="0 0 128 128">
  <defs>
    <linearGradient id="g" x1="0" y1="0" x2="1" y2="1">
      <stop offset="0" stop-color="#6ee7ff" stop-opacity="0.95"/>
      <stop offset="1" stop-color="#a78bfa" stop-opacity="0.95"/>
    </linearGradient>
  </defs>
  <rect x="8" y="8" width="112" height="112" rx="24" fill="#0b1220" stroke="rgba(255,255,255,0.12)" stroke-width="2"/>
  <path d="M42 44c8-12 16-18 22-18s14 6 22 18l-10 10v44c0 4-3 7-7 7H59c-4 0-7-3-7-7V54L42 44z" fill="url(#g)"/>
  <path d="M40 74c6-8 12-12 18-12s12 4 18 12" fill="none" stroke="rgba(230,233,242,0.85)" stroke-width="4" stroke-linecap="round"/>
  <circle cx="94" cy="36" r="10" fill="rgba(255,255,255,0.08)"/>
  <path d="M90 36h8M94 32v8" stroke="rgba(255,255,255,0.65)" stroke-width="2" stroke-linecap="round"/>
</svg>
